<svg version="1" xmlns="http://www.w3.org/2000/svg" width="682.667" height="682.667" viewBox="0 0 512.000000 512.000000"><path d="M237.9.4c-.2.2-3.5.6-7.4.9-32.2 2.8-71.4 15.1-99.7 31.4-3.5 2-7.2 4.1-8.3 4.7-4.1 2.3-15.3 10.1-23.5 16.5-21 16.3-40.8 37.5-56 60-12.5 18.8-23.7 41.4-30.1 61.6-2.2 6.6-6.6 22.7-7.3 26.5-2.6 13.6-3.4 18.7-4.4 28-.9 8.8-.8 46.1.2 53.5.4 3.3 1 7.6 1.2 9.5.8 6.1 2 12.3 4.1 21 .8 3.6 1.6 6.9 1.7 7.5.5 2.2 2.8 10.3 4.1 14 20.4 61.4 63.3 113.3 119.3 144.4 25.1 13.9 56.4 24.8 82.7 28.7 2.2.3 5.1.8 6.5 1 7.9 1.3 17.6 1.8 34.5 1.9 18.9 0 31.2-.9 42.5-3 1.4-.3 4.1-.7 6-1 23.8-3.9 57.6-16.5 80.7-30.2 26.8-15.8 46.9-32.9 68.7-58.3 12.9-15.1 27.5-38.5 36-58 6.1-13.8 6.2-14.1 9.2-23 3.5-10.6 2.8-8.3 6.4-23 3.4-14.4 3.9-17.2 5.7-33.5 1.2-10.4.8-49-.5-57-.6-3.9-1.4-8.8-1.8-11-.3-2.2-.7-4.5-.8-5-.2-.6-.6-2.8-1-5-3.9-20.3-13.8-47.8-24.4-67.5C443.5 63.6 372.9 14.1 292 2.5c-1.9-.3-5.3-.7-7.5-1.1-4.4-.6-46-1.5-46.6-1zm46.1 77c20.8 2.5 46.7 12.1 67.5 24.9 15.7 9.7 37.7 29.7 48.5 44.2 19.2 25.6 31 54.2 35.4 86 1.5 11.1 1.8 33 .6 42-.5 3.3-1.1 8.2-1.5 11-2.1 17.5-11.9 44.3-22.8 62.5-9 15.1-25.3 34.6-37.1 44.5-.6.5-2.2 1.9-3.4 2.9-2.2 1.9-2.2 1.9-5.3-1.5-7.3-7.9-13.4-18.9-17-30.4-2.4-7.5-2.4-7.2.8-8 7.5-1.8 17.3-7.5 22.9-13.2 5-4.9 10.2-13 11-16.8.2-.6.9-3.2 1.8-5.8 1.2-4.1 1.4-13.5 1.3-61-.2-54.5-.3-56.3-2.2-58.9-1.1-1.4-3.1-3.3-4.5-4.2l-2.5-1.5 2.4-.1c3.2 0 8.9-6.2 9.7-10.5.8-4.2-1.9-10-5.9-12.9-2.3-1.7-4.5-2.1-11.5-2.2-7.7-.2-8.7-.4-9-2-.3-2.8-2.6-13.8-3.6-18.2-3.7-15-14.4-31.3-27.5-41.6-7.1-5.5-26.6-13.8-35.9-15.2-2-.3-5.3-.9-7.2-1.4-1.9-.5-5.7-1-8.4-1.2-4.5-.3-5-.6-6.3-3.7-.8-1.9-1.6-4.2-1.8-5-.2-.9-.4-2.1-.5-2.6-.5-2.1.1-2.3 3.8-1.5 2 .5 5.7 1.1 8.2 1.4zM235.8 82c-1.1 3.3-2.3 6-2.6 6.1-1.4.1-16.4 2.7-20.5 3.4-6.2 1.2-19.4 5.9-25.4 9.1-6.6 3.5-16.2 10.5-19.9 14.6-5.7 6.3-15 21.9-15.7 26.5-.1 1-.5 2.2-.8 2.8-.6.9-1.2 3.2-2.5 8.7-1 4.4-1.3 5.9-1.9 10.2-.4 2.5-1 4.6-1.4 4.7-.3 0-4.2.2-8.7.3-11.1.3-15.8 3.6-16.8 11.8-.5 4.6 2.8 10.6 7.1 12.7 3.9 1.9 4.1 2.8.8 4.3-5.3 2.4-5.4 4.3-5.1 64.3.2 30.2.6 56.1.9 57.4 1.7 6.3 3.3 10 6.5 15.1 3.7 5.9 11.3 13.6 14.3 14.5 1.1.4 1.9 1 1.9 1.4 0 .4 3.6 2 8 3.5 4.4 1.6 8 3.2 8 3.6 0 2.5-4.7 15.3-7.7 20.9-4.3 8.2-11.1 17.1-13 17.1-1.3 0-3.9-2.2-13.5-11.3-9.6-9.2-24.6-29.6-32-43.6-9.4-17.6-17.2-42.7-19.6-62.5-.9-7.8-.9-35.3 0-42.8 4-32.2 16.2-62.2 36-88.6l8.1-10.7-1.1-4c-1.1-4-1.1-4 3.7-8.8 4.4-4.5 4.9-4.7 7.6-3.7 4.1 1.6 6.2.8 13.3-4.9 12.5-10 36.1-23.5 47.7-27.1 2.2-.7 4.5-1.5 5-1.9.6-.3 1.5-.6 2-.8.6-.1 5.1-1.3 10-2.7 8.2-2.3 21.1-4.9 27-5.4l2.4-.2-2.1 6z"/></svg>